<svg xmlns="http://www.w3.org/2000/svg" width="20" height="20" viewBox="-1 -1 20 20" id="blog-1818" x="939" y="964.73"><defs><path id="bna" d="M0 0h18v18H0z"/><path id="bnc" d="M0 18h17.879V.121H0z"/></defs><g fill="none" fill-rule="evenodd"><mask id="bnb" fill="#fff"><use xmlns:xlink="http://www.w3.org/1999/xlink" xlink:href="#bna"/></mask><g mask="url(#bnb)"><g transform="translate(0 .037)"><mask id="bnd" fill="#fff"><use xmlns:xlink="http://www.w3.org/1999/xlink" xlink:href="#bnc"/></mask><path fill="#656666" d="M17.879 14.425c0 1.974-1.6 3.575-3.577 3.575H3.575A3.576 3.576 0 010 14.425V3.697A3.576 3.576 0 013.575.121h10.727a3.576 3.576 0 013.577 3.576v10.728z" mask="url(#bnd)"/></g><path fill="#FEFEFE" d="M16.594 9.708a2.423 2.423 0 01-2.418 2.427H3.703a2.422 2.422 0 01-2.418-2.427V3.952a2.422 2.422 0 012.418-2.427h10.473a2.422 2.422 0 012.418 2.427v5.756z"/><path fill="#FEFEFE" d="M10.823 11.72l-1.556-.097v-.041l-.326.02-.33-.02v.04l-1.556.098 1.486 2.42s.014.023.04.056a.414.414 0 00.714.003c.032-.036.042-.06.042-.06l1.486-2.42z"/><path fill="#656666" d="M4.478 7.804a.602.602 0 110-1.205.602.602 0 010 1.205m.207-2.06s-.418 0-.797.368V4.626H2.95V8.53h.947v-.306s.224.403.788.403c0 0 1.32-.048 1.32-1.457 0 0-.048-1.428-1.32-1.428m1.622-1.204v.904s.427-.02.427.777v2.312h.904V6.005s.038-1.467-1.331-1.467m3.54 3.266a.602.602 0 110-1.205.602.602 0 010 1.205m0-2.049s-1.549 0-1.549 1.447c0 0-.05 1.426 1.549 1.426 0 0 1.584-.002 1.584-1.426 0 0 .052-1.447-1.584-1.447m3.61 2.049a.602.602 0 110-1.205.602.602 0 010 1.205zm.56-1.954v.262s-.27-.357-.786-.357c0 0-1.326-.056-1.326 1.437 0 0-.015 1.39 1.289 1.39 0 0 .532.022.823-.357v.219s.066.684-.597.684h-.226v.83h.364s1.37.015 1.37-1.463V5.85h-.91z"/></g></g></svg>