<svg xmlns="http://www.w3.org/2000/svg" width="38" height="38" viewBox="-1 -1 38 38" id="cart-3636" x="734" y="809.73"><g fill="none" fill-rule="evenodd"><path fill="#2C83E9" d="M18 0c9.941 0 18 8.059 18 18s-8.059 18-18 18S0 27.941 0 18 8.059 0 18 0z"/><g transform="translate(10 9)"><path d="M0 0h16v18H0z"/><path stroke="#FFF" d="M1.232 6.027L.504 16.045A1.332 1.332 0 001.857 17.5h12.286c.81 0 1.412-.647 1.353-1.455l-.728-10.018c-.06-.834-.804-1.527-1.642-1.527H2.874c-.842 0-1.581.688-1.642 1.527z"/><rect width="8" height="1" x="4" y="13" fill="#FFF" rx=".5"/><path fill="#FFF" fill-rule="nonzero" d="M11 4a3 3 0 10-6 0v2.5a.5.5 0 01-1 0V4a4 4 0 118 0v2.5a.5.5 0 11-1 0V4z"/></g></g></svg>