<svg xmlns="http://www.w3.org/2000/svg" width="107" height="56" viewBox="-1 -1 107 56" id="logo" x="1140" y="229">
    <g fill="none" fill-rule="evenodd"><path fill="#FFCD53" d="M16 0c8.836 0 16 7.164 16 16s-7.164 16-16 16S0 24.836 0 16 7.164 0 16 0z"/>
        <path fill="#2C82E8" d="M64.477 16.037c0-3.12 1.366-5.913 3.523-7.838V0H36v8.2a10.477 10.477 0 010 15.676V32h32v-8.124a10.48 10.48 0 01-3.523-7.839M72 32h32V0H72z"/>
        <path fill="#FFCD53" d="M3.466 47.633c0 .428.08.823.242 1.183a2.955 2.955 0 001.616 1.559c.366.148.752.222 1.162.222.408 0 .794-.074 1.16-.222a3.03 3.03 0 00.968-.619c.28-.265.501-.58.662-.94.162-.36.243-.755.243-1.183 0-.427-.081-.82-.243-1.182a2.935 2.935 0 00-.662-.94 3.08 3.08 0 00-2.129-.84c-.409 0-.795.075-1.16.222a2.968 2.968 0 00-.962.619c-.275.266-.493.58-.655.94-.162.36-.242.755-.242 1.181m-2.92 0c0-.796.148-1.539.442-2.227.294-.69.703-1.29 1.225-1.803A5.607 5.607 0 014.085 42.4c.727-.29 1.527-.434 2.4-.434a6.43 6.43 0 012.393.434c.73.29 1.36.69 1.887 1.203a5.513 5.513 0 011.232 1.803c.295.688.442 1.431.442 2.228 0 .797-.147 1.54-.442 2.229a5.498 5.498 0 01-1.232 1.8 5.656 5.656 0 01-1.887 1.204 6.413 6.413 0 01-2.392.435c-.874 0-1.674-.144-2.4-.435a5.583 5.583 0 01-1.873-1.203 5.54 5.54 0 01-1.225-1.801 5.617 5.617 0 01-.442-2.23m16.599-1.223h4.03v-4.146h2.792v10.74h-2.792v-4.43h-4.03v4.43h-2.791v-10.74h2.79z"/>
        <path fill="#2C82E8" d="M82.291 53.003l1.824-10.739h2.762l2.15 5.726 2.137-5.726h2.763l1.823 10.739h-2.778l-.925-6.18-2.535 6.18H88.4l-2.407-6.18-.925 6.18zm21.877-8.374h-3.318v1.794h3.134v2.364h-3.134v1.852h3.318v2.364h-6.109V42.264h6.109zM31.98 47.193h.925c1.025 0 1.538-.446 1.538-1.34 0-.891-.513-1.337-1.538-1.337h-.926v2.677zm0 5.81h-2.792V42.264h4.443c1.206 0 2.129.314 2.77.94.64.627.961 1.51.961 2.65s-.32 2.022-.96 2.649c-.642.626-1.565.94-2.77.94h-1.653v3.56zm10.13-5.938h.528c.55 0 .972-.115 1.267-.343.295-.227.442-.554.442-.982 0-.427-.147-.755-.442-.983-.295-.228-.717-.34-1.267-.34h-.527v2.648zm6.139 5.938h-3.475l-2.663-4.13v4.13h-2.792V42.264h4.344c.598 0 1.12.088 1.566.264.447.176.815.416 1.104.72.29.303.508.655.655 1.053.147.4.22.826.22 1.283 0 .816-.197 1.478-.59 1.985-.395.51-.976.853-1.744 1.034l3.375 4.4zm1.711 0h2.791v-10.74H49.96zm5.19 0V42.264h2.793l5.155 6.566v-6.566h2.776v10.739h-2.776l-5.155-6.565v6.565zm17.985-8.374v8.374h-2.792v-8.374H68.05v-2.365h7.377v2.365zm5.618 7.095a1.47 1.47 0 11-2.94 0 1.47 1.47 0 012.94 0"/>
    </g>
</svg>