<svg xmlns="http://www.w3.org/2000/svg" xmlns:xlink="http://www.w3.org/1999/xlink" width="30" height="20" viewBox="0 0 30 20">
    <defs>
        <path id="a" d="M0 0h20v6H0z"/>
    </defs>
    <g fill="none" fill-rule="evenodd">
        <path fill="#2C83E9" d="M2 16a2 2 0 0 1-2-2V2a2 2 0 0 1 2-2h26a2 2 0 0 1 2 2v12a2 2 0 0 1-2 2H18l-3 4-3-4H2z"/>
        <g transform="translate(5 5)">
            <mask id="b" fill="#fff">
                <use xlink:href="#a"/>
            </mask>
            <path fill="#FFF" d="M1.568 0l2.873 3.668h.016V0h1.568v6H4.457L1.584 2.324h-.016V6H0V0h1.568zm9.434 0v1.321H8.57v1.003h2.262v1.32H8.57V4.68h2.432V6h-4V0h4zm2.094 0l.959 3.875h.015L15.226 0h1.143l1.083 3.875h.015L18.507 0H20l-1.764 6H16.77l-.966-3.477h-.015L14.707 6H13.25l-1.648-6h1.494z" mask="url(#b)"/>
        </g>
    </g>
</svg>
