<svg xmlns="http://www.w3.org/2000/svg" width="50" height="20" viewBox="-1 -1 50 20" id="logo-snaps" x="1231" y="512"><defs><path id="hpa" d="M0 .104v7.049h7.24V.104H0z"/></defs><g fill="none" fill-rule="evenodd"><g transform="translate(0 .045)"><mask id="hpb" fill="#fff"><use xmlns:xlink="http://www.w3.org/1999/xlink" xlink:href="#hpa"/></mask><path fill="#999" d="M5.575.104a.48.48 0 00-.48.462l-.001.02c0 .04.006.08.015.118l.246 2.395H6.5a.483.483 0 00.483-.482L7.239.103H5.575zM3.922 2.802L2.327.844 1.151 2.021a.48.48 0 00-.013.666l.013.015a.49.49 0 00.094.073l1.867 1.519.81-.81a.483.483 0 000-.682zM2.611 5.274a.48.48 0 00-.098-.01L0 5.007v1.664c0 .26.205.469.462.48l.02.002c.04 0 .08-.006.118-.016l2.395-.246V5.746a.482.482 0 00-.384-.472z" mask="url(#hpb)"/></g><path fill="#999" d="M19.914 5.47c-.615-.58-1.212-.888-2.086-.935a4.474 4.474 0 00-2.64.713V5.22a.481.481 0 00-.482-.481h-1.698v8.624h1.11c.59 0 1.07-.48 1.07-1.07V8.1c0-.386.209-.784.504-1.067.295-.283.77-.508 1.25-.508.481 0 .954.235 1.247.542.297.305.513.704.527 1.066v5.229h1.052a1.07 1.07 0 001.07-1.07v-4.09c0-1.246-.31-2.158-.924-2.732m17.801 3.665c-.015.918-.238 1.572-.57 1.867-.332.296-.75.486-1.15.486-.4 0-1.175-.288-1.665-.721v-3.53c.568-.407 1.222-.68 1.665-.669.445.012 1.072.358 1.276.665.333.5.455.985.444 1.902m2.175-.29c-.06-1.673-.295-2.668-.995-3.279-.702-.613-1.454-.917-2.253-.917-.8 0-1.668.101-2.312.599V5.22a.482.482 0 00-.482-.481h-1.693v12.99l1.464-.824.12-.057c.352-.192.591-.566.591-.996V12.75c.62.408 1.245.605 2.18.617.939.01 1.627-.199 2.365-.921.74-.725 1.077-1.924 1.015-3.601M25.25 11.44c-.283-.203-.535-.642-.523-1.015.013-.372.266-.797.586-.98.321-.18.775-.26 1.24-.236.47.019 1.053.202 1.548.45l-.002 1.272c-.47.497-1.07.757-1.6.778-.527.026-.964-.065-1.248-.27m4.057-6.21c-.727-.462-1.692-.683-2.898-.66a7.58 7.58 0 00-1.396.152 6.68 6.68 0 00-1.474.483c-.143.066-.165.073-.303.15l.474.814.022.038c.187.315.38.379.773.379a1.059 1.059 0 00.374-.066c.406-.145.83-.228 1.27-.25.738-.03 1.231.064 1.477.29.246.226.52.637.52.93v.623c-.273-.2-1.008-.465-1.906-.487-.898-.023-1.606.169-2.419.577-.809.406-1.237 1.104-1.274 2.086-.035.985.278 1.767.943 2.345.667.576 1.302.87 2.214.882.91.01 1.824-.244 2.44-.764l.001.002c.19.362.569.61 1.006.61h1.096V7.59c0-1.109-.215-1.894-.94-2.36M8.915 8.179c-1.165-.369-1.95-.592-1.95-1.134 0-.498.823-.857 1.542-.857.374 0 .749.059 1.086.144l.012.003c.078.018.159.028.242.028.504 0 .927-.2 1.04-.67a.051.051 0 01.002-.003l.202-.71a4.165 4.165 0 00-.357-.138 6.925 6.925 0 00-1.453-.308 8.003 8.003 0 00-.872-.048c-2.348 0-3.714 1.217-3.714 2.84-.019 1.003.592 1.823 2.55 2.423 1.108.334 1.815.693 1.815 1.131 0 .444-.786.873-1.681.873-.306 0-.642-.043-.973-.112-.389-.08-1.088-.32-1.088-.32a4.102 4.102 0 01-.48-.218l-.255.784s-.047.207-.047.315a1.07 1.07 0 00.863 1.05 8.327 8.327 0 001.98.235c2.72 0 3.971-1.194 3.971-2.796-.022-1.27-.628-1.948-2.435-2.512m36.607 0c-1.165-.369-1.951-.592-1.951-1.134 0-.498.823-.857 1.543-.857.374 0 .749.059 1.086.144l.012.003c.078.018.159.028.242.028.504 0 .926-.2 1.04-.67l.002-.003.202-.71a4.165 4.165 0 00-.357-.138 6.925 6.925 0 00-1.453-.308 8.006 8.006 0 00-.872-.048c-2.348 0-3.714 1.217-3.714 2.84-.019 1.003.592 1.823 2.55 2.423 1.107.334 1.815.693 1.815 1.131 0 .444-.786.873-1.681.873-.306 0-.642-.043-.973-.112-.39-.08-1.088-.32-1.088-.32a4.102 4.102 0 01-.48-.218l-.255.784s-.047.207-.047.315a1.07 1.07 0 00.862 1.05 8.327 8.327 0 001.98.235c2.721 0 3.972-1.194 3.972-2.796-.023-1.27-.629-1.948-2.435-2.512"/></g></svg>