<svg xmlns="http://www.w3.org/2000/svg" width="83" height="20" viewBox="-1 -1 83 20" id="logo_ohprintme_4818" x="1140" y="753"><g fill="none" fill-rule="evenodd"><path d="M0 0h81v18H0z"/><path d="M2.666 9.103c0 .329.062.632.186.91a2.273 2.273 0 001.243 1.199c.282.113.58.17.894.17a2.358 2.358 0 001.637-.647 2.199 2.199 0 00.696-1.633c0-.328-.062-.631-.186-.909a2.258 2.258 0 00-.51-.722 2.37 2.37 0 00-1.638-.647 2.37 2.37 0 00-.892.17 2.283 2.283 0 00-1.244 1.2c-.124.277-.186.58-.186.909m-2.246 0c0-.613.114-1.184.34-1.714.226-.53.54-.992.942-1.387a4.313 4.313 0 011.44-.925 4.948 4.948 0 011.847-.334c.665 0 1.278.111 1.84.334a4.37 4.37 0 011.452.925c.405.395.721.857.947 1.387.227.53.34 1.101.34 1.714a4.31 4.31 0 01-.34 1.714A4.23 4.23 0 016.83 13.13a4.933 4.933 0 01-1.84.334c-.672 0-1.288-.11-1.846-.334a4.294 4.294 0 01-1.44-.926 4.26 4.26 0 01-.943-1.386 4.321 4.321 0 01-.34-1.714M13.188 8.16h3.1V4.974h2.148v8.26h-2.147V9.826h-3.1v3.407H11.04v-8.26h2.147zM63.301 13.233l1.403-8.26h2.125l1.654 4.404 1.643-4.405h2.126l1.402 8.26h-2.137l-.712-4.753-1.95 4.754h-.854L66.15 8.479l-.712 4.754zM80.13 6.791h-2.553v1.38h2.41v1.82h-2.41v1.424h2.552v1.818H75.43v-8.26h4.7zM24.6 8.764h.711c.789 0 1.184-.344 1.184-1.03 0-.687-.395-1.03-1.184-1.03H24.6v2.06zm0 4.47h-2.148V4.971h3.418c.928 0 1.638.242 2.131.724.493.482.74 1.161.74 2.038 0 .876-.247 1.555-.74 2.037s-1.203.724-2.13.724h-1.272v2.738zM32.393 8.665h.405c.423 0 .748-.088.975-.263.227-.175.34-.427.34-.756 0-.328-.113-.58-.34-.756-.227-.175-.552-.262-.975-.262h-.405v2.037zm4.721 4.568h-2.673l-2.048-3.177v3.177h-2.148v-8.26h3.342c.46 0 .862.067 1.205.202.343.136.626.32.849.554.223.233.39.504.504.81.113.307.17.636.17.987 0 .628-.152 1.137-.455 1.527-.304.392-.75.656-1.342.796l2.596 3.384zM38.43 13.233h2.148v-8.26H38.43zM42.423 13.233v-8.26h2.148l3.966 5.05v-5.05h2.136v8.26h-2.136l-3.966-5.05v5.05zM56.258 6.791v6.442H54.11V6.791h-1.764V4.973h5.675V6.79zM60.58 12.25a1.131 1.131 0 11-2.262 0 1.131 1.131 0 012.262 0" fill="#191919"/></g></svg>